<?xml version="1.0" encoding="UTF-8" standalone="no"?><!DOCTYPE svg PUBLIC "-//W3C//DTD SVG 1.1//EN" "http://www.w3.org/Graphics/SVG/1.1/DTD/svg11.dtd"><svg width="100%" height="100%" viewBox="0 0 190 92" version="1.1" xmlns="http://www.w3.org/2000/svg" xmlns:xlink="http://www.w3.org/1999/xlink" xml:space="preserve" xmlns:serif="http://www.serif.com/" style="fill-rule:evenodd;clip-rule:evenodd;stroke-linejoin:round;stroke-miterlimit:2;"><g><path d="M133.098,63.022l1.572,-3.562l1.572,3.562l-3.144,0Zm1.168,-4.709l-3.257,7.261l0.972,0l0.749,-1.694l3.88,-0l0.759,1.694l0.971,0l-3.257,-7.261l-0.817,0Z" style="fill:#ffe100;fill-rule:nonzero;"/><path d="M143.355,63.224c-0,0.913 -0.641,1.582 -1.524,1.591c-0.494,0.005 -0.89,-0.132 -1.156,-0.395c-0.26,-0.259 -0.393,-0.631 -0.393,-1.107l-0,-2.98l-0.848,0l0,2.99c0,1.415 0.934,2.33 2.382,2.33c0.621,-0.01 1.162,-0.224 1.548,-0.601l0,0.522l0.838,-0l0,-5.241l-0.847,0l-0,2.891Z" style="fill:#ffe100;fill-rule:nonzero;"/><path d="M149.046,64.656c-0.241,0.115 -0.479,0.178 -0.671,0.178c-0.54,0 -0.713,-0.228 -0.713,-0.94l-0,-2.782l1.654,-0l0,-0.77l-1.654,0l-0,-1.487l-0.838,0.087l-0,1.4l-1.034,0l-0,0.77l1.034,-0l-0,2.782c-0,1.177 0.507,1.749 1.551,1.749c0.303,-0 0.628,-0.087 0.996,-0.264l0.156,-0.076l-0.31,-0.73l-0.171,0.083Z" style="fill:#ffe100;fill-rule:nonzero;"/><path d="M153.568,64.805c-1.07,-0 -1.817,-0.755 -1.817,-1.837c-0,-1.099 0.764,-1.896 1.817,-1.896c1.054,0 1.817,0.797 1.817,1.896c0,1.082 -0.747,1.837 -1.817,1.837m0,-4.551c-1.538,0 -2.655,1.141 -2.655,2.714c-0,1.575 1.092,2.675 2.655,2.675c1.563,-0 2.655,-1.1 2.655,-2.675c0,-1.573 -1.116,-2.714 -2.655,-2.714" style="fill:#ffe100;fill-rule:nonzero;"/><rect x="158.077" y="61.85" width="3.813" height="0.877" style="fill:#ffe100;"/><path d="M167.382,62.181l-2.541,-3.868l-0.911,0l-0,7.261l0.896,-0l0,-5.701l2.379,3.612l0.375,0l2.358,-3.608l0,5.697l0.887,-0l0,-7.261l-0.931,0l-2.512,3.868Z" style="fill:#ffe100;fill-rule:nonzero;"/><path d="M175.393,64.805c-1.07,-0 -1.817,-0.755 -1.817,-1.837c-0,-1.099 0.764,-1.896 1.817,-1.896c1.054,0 1.817,0.797 1.817,1.896c0,1.082 -0.747,1.837 -1.817,1.837m0,-4.551c-1.538,0 -2.655,1.141 -2.655,2.714c-0,1.575 1.092,2.675 2.655,2.675c1.564,-0 2.655,-1.1 2.655,-2.675c0,-1.573 -1.116,-2.714 -2.655,-2.714" style="fill:#ffe100;fill-rule:nonzero;"/><path d="M182.636,64.656c-0.241,0.115 -0.479,0.178 -0.67,0.178c-0.541,0 -0.714,-0.228 -0.714,-0.94l-0,-2.782l1.655,-0l-0,-0.77l-1.655,0l-0,-1.487l-0.838,0.087l-0,1.4l-1.034,0l-0,0.77l1.034,-0l-0,2.782c-0,1.177 0.507,1.749 1.552,1.749c0.302,-0 0.627,-0.087 0.995,-0.264l0.156,-0.076l-0.31,-0.73l-0.171,0.083Z" style="fill:#ffe100;fill-rule:nonzero;"/><path d="M187.158,64.805c-1.07,-0 -1.817,-0.755 -1.817,-1.837c-0,-1.099 0.764,-1.896 1.817,-1.896c1.054,0 1.817,0.797 1.817,1.896c0,1.082 -0.747,1.837 -1.817,1.837m0,-4.551c-1.538,0 -2.655,1.141 -2.655,2.714c-0,1.575 1.092,2.675 2.655,2.675c1.563,-0 2.655,-1.1 2.655,-2.675c0,-1.573 -1.117,-2.714 -2.655,-2.714" style="fill:#ffe100;fill-rule:nonzero;"/><path d="M186.75,38.126l-5.614,7.486l-0.642,0l-5.49,-7.51l-0,12.533l-3.251,-0l0,-17.237l3.743,0l5.394,7.412l5.392,-7.412l3.718,0l0,17.237l-3.25,-0l-0,-12.509Z" style="fill:#fff;fill-rule:nonzero;"/><path d="M63.295,38.126l-5.615,7.486l-0.641,0l-5.49,-7.51l-0,12.533l-3.251,-0l0,-17.237l3.743,0l5.393,7.412l5.393,-7.412l3.718,0l-0,17.237l-3.25,-0l-0,-12.509Z" style="fill:#fff;fill-rule:nonzero;"/><path d="M79.547,37.039l-3.192,7.315l6.383,0l-3.191,-7.315Zm4.492,10.334l-8.985,0l-1.473,3.241l-3.511,0l7.709,-17.184l3.535,-0l7.709,17.184l-3.536,0l-1.448,-3.241Z" style="fill:#fff;fill-rule:nonzero;"/><path d="M106.821,48.454c-1.767,1.743 -4.05,2.553 -6.529,2.553c-6.383,-0 -9.083,-4.394 -9.108,-8.862c-0.024,-4.493 2.897,-9.059 9.108,-9.059c2.331,-0 4.541,0.884 6.309,2.627l-2.161,2.087c-1.128,-1.105 -2.651,-1.621 -4.148,-1.621c-4.149,0 -5.941,3.094 -5.917,5.966c0.025,2.847 1.67,5.818 5.917,5.818c1.497,-0 3.191,-0.614 4.32,-1.743l2.209,2.234Z" style="fill:#fff;fill-rule:nonzero;"/><path d="M117.796,37.039l-3.192,7.315l6.383,0l-3.191,-7.315Zm4.492,10.334l-8.985,0l-1.473,3.241l-3.511,0l7.709,-17.184l3.535,-0l7.709,17.184l-3.535,0l-1.449,-3.241Z" style="fill:#fff;fill-rule:nonzero;"/><path d="M134.465,47.497l3.536,-0c3.904,-0 5.449,-2.849 5.376,-5.647c-0.074,-2.676 -1.645,-5.351 -5.376,-5.351l-3.536,-0l0,10.998Zm12.128,-5.622c0.073,4.345 -2.578,8.739 -8.592,8.739l-6.751,0l-0,-17.184l6.751,-0c5.891,-0 8.519,4.198 8.592,8.445" style="fill:#fff;fill-rule:nonzero;"/><path d="M158.648,37.039l-3.192,7.315l6.382,0l-3.19,-7.315Zm4.492,10.334l-8.985,0l-1.473,3.241l-3.511,0l7.709,-17.184l3.535,-0l7.708,17.184l-3.535,0l-1.448,-3.241Z" style="fill:#fff;fill-rule:nonzero;"/><path d="M20.892,28.478c2.345,0 4.355,0.421 6.299,1.426l1.753,-2.406l2.173,0c-2.939,-2.014 -6.394,-3.16 -10.225,-3.16c-3.61,0 -6.975,1.055 -9.816,2.863l2.644,3.23c2.107,-1.238 4.557,-1.953 7.172,-1.953" style="fill:#fff;fill-rule:nonzero;"/><path d="M38.978,42.678c-0,-3.155 -0.812,-6.119 -2.222,-8.714l-0,17.428c1.41,-2.595 2.222,-5.559 2.222,-8.714" style="fill:#fff;fill-rule:nonzero;"/><path d="M2.4,42.678c-0,3.146 0.807,6.102 2.21,8.692l0,-17.384c-1.403,2.59 -2.21,5.546 -2.21,8.692" style="fill:#fff;fill-rule:nonzero;"/><path d="M29.129,54.235c-2.325,1.661 -5.168,2.643 -8.237,2.643c-3.262,0 -6.268,-1.11 -8.669,-2.966c-0.005,-0.004 -0.009,-0.007 -0.014,-0.01l0,3.353l-1.087,0.932c0.027,0.017 0.055,0.031 0.081,0.047c2.815,1.76 6.133,2.784 9.689,2.784c2.962,-0 5.762,-0.707 8.241,-1.96c0.002,-0 0.004,-0.005 0.005,-0.007l0,-4.813c-0.003,-0.003 -0.006,-0.006 -0.009,-0.003" style="fill:#fff;fill-rule:nonzero;"/><path d="M32.483,28.648l-2.957,0l-1.427,1.942c0,-0 0.001,-0 0.001,0l-7.404,10.178l-14.907,-18.209l-0.03,6.089l0,32.737l5.315,-4.553l-0,-20.494l8.979,12.28l1.046,0l9.179,-12.239l0,16.748c0.002,-0 0.003,-0.001 0.003,-0.002l0.011,5.17c2.085,-1.287 3.891,-2.98 5.314,-4.968l-0,-21.298c-0.897,-1.253 -1.946,-2.39 -3.123,-3.381" style="fill:#ffe100;fill-rule:nonzero;"/></g></svg>